# AST/ASF file generated using VICON BodyLanguage
# -----------------------------------------------
:version 1.10
:name VICON
:units
  mass 1.0
  length 0.45
  angle deg
:documentation
   .ast/.asf automatically generated from VICON data using
   VICON BodyBuilder and BodyLanguage model FoxedUp or BRILLIANT.MOD
:root
   order TX TY TZ RX RY RZ
   axis XYZ
   position 0 0 0  
   orientation 0 0 0 
:bonedata
  begin
     id 1 
     name lhipjoint
     direction 0.722297 -0.617336 0.311742 
     length 2.6635 
     axis 0 0 0  XYZ
  end
  begin
     id 2 
     name lfemur
     direction 0.34202 -0.939693 0  
     length 7.39349  
     axis 0 0 20  XYZ
    dof rx ry rz
    limits (-160.0 20.0)
           (-70.0 70.0)
           (-60.0 70.0)
  end
  begin
     id 3 
     name ltibia
     direction 0.34202 -0.939693 0   
     length 7.36294   
     axis 0 0 20   XYZ
    dof rx
    limits (-10.0 170.0)
  end
  begin
     id 4 
     name lfoot
     direction 0.104879 -0.288152 0.951824   
     length 2.16981   
     axis -90 7.62852e-016 20   XYZ
    dof rx rz
    limits (-45.0 90.0)
           (-70.0 20.0)
  end
  begin
     id 5 
     name ltoes
     direction 1.53586e-011 -4.21895e-011 1   
     length 1.08218   
     axis -90 7.62852e-016 20   XYZ
    dof rx
    limits (-90.0 20.0)
  end
  begin
     id 6 
     name rhipjoint
     direction -0.75102 -0.589393 0.297631   
     length 2.78977  
     axis 0 0 0  XYZ 
  end
  begin
     id 7 
     name rfemur
     direction -0.34202 -0.939693 0   
     length 7.46076   
     axis 0 0 -20   XYZ
    dof rx ry rz
    limits (-160.0 20.0)
           (-70.0 70.0)
           (-70.0 60.0)
  end
  begin
     id 8 
     name rtibia
     direction -0.34202 -0.939693 0   
     length 7.31726   
     axis 0 0 -20   XYZ
    dof rx
    limits (-10.0 170.0)
 end
 begin
     id 9 
     name rfoot
     direction -0.107991 -0.296704 0.948844   
     length 2.09388  
     axis -90 -7.62852e-016 -20   XYZ
    dof rx rz
    limits (-45.0 90.0)
           (-20.0 70.0)
  end
  begin
     id 10 
     name rtoes
     direction -1.53559e-011 -4.21911e-011 1   
     length 1.04433   
     axis -90 -7.62852e-016 -20   XYZ
    dof rx
    limits (-90.0 20.0)
  end
  begin
     id 11 
     name lowerback
     direction 0.0165164 0.98272 0.184358   
     length 1.71896   
     axis 0 0 0   XYZ
    dof rx ry rz
    limits (-20.0 45.0)
           (-30.0 30.0)
           (-30.0 30.0)
  end
  begin
     id 12 
     name upperback
     direction -0.00887249 0.992297 0.123566   
     length 1.71504   
     axis 0 0 0   XYZ
    dof rx ry rz
    limits (-20.0 45.0)
           (-30.0 30.0)
           (-30.0 30.0)
  end
  begin
     id 13 
     name thorax
     direction -0.0157026 0.998908 0.0440032   
     length 1.77022   
     axis 0 0 0   XYZ
    dof rx ry rz
    limits (-20.0 45.0)
           (-30.0 30.0)
           (-30.0 30.0)
  end
  begin
     id 14 
     name lowerneck
     direction -0.0238856 0.998137 0.0561411   
     length 1.89341   
     axis 0 0 0   XYZ
    dof rx ry rz
    limits (-20.0 45.0)
           (-30.0 30.0)
           (-30.0 30.0)
  end
  begin
     id 15 
     name upperneck
     direction 0.0276574 0.952253 -0.304056   
     length 1.86999   
     axis 0 0 0   XYZ
    dof rx ry rz
    limits (-20.0 45.0)
           (-30.0 30.0)
           (-30.0 30.0)
  end
  begin
     id 16
     name head
     direction 0.00800083 0.994258 -0.106712  
     length 1.91492  
     axis 0 0 0   XYZ
    dof rx ry rz
    limits (-20.0 45.0)
           (-30.0 30.0)
           (-30.0 30.0)
  end
  begin
     id 17 
     name lclavicle
     direction 0.97203 0.225407 0.06595  
     length 3.34889  
     axis 0 0 0   XYZ
    dof ry rz
    limits (-20.0 10.0)
           (0.0 20.0)
  end
  begin
     id 18 
     name lhumerus
     direction 1 -4.48973e-011 2.20267e-027   
     length 4.85645   
     axis 180 -30 -90   XYZ
    dof rx ry rz
    limits (-60.0 90.0)
           (-90.0 90.0)
           (-90.0 90.0)
  end
  begin
     id 19
     name lradius
     direction 1 -4.4897e-011 4.60472e-027   
     length 2.79874   
     axis 180 -30 -90   XYZ
    dof rx
    limits (-10.0 170.0)
  end
  begin
     id 20
     name lwrist
     direction 1 -4.48952e-011 1.14928e-026   
     length 1.39937   
     axis -6.29373e-015 90 90   XYZ
    dof ry
    limits (-180.0 0.0)
 end
  begin
     id 21 
     name lhand
     direction 1 -4.48967e-011 2.29886e-026   
     length 0.573398   
     axis -1.46689e-014 90 90   XYZ
    dof rx rz
    limits (-90.0 90.0)
           (-45.0 45.0)
  end
  begin
     id 22 
     name lfingers
     direction 1 -4.48955e-011 4.59726e-026   
     length 0.462289   
     axis -2.93383e-014 90 90   XYZ
    dof rx
    limits (0.0 90.0)
  end
  begin
     id 23
     name lthumb
     direction 0.707107 -6.34866e-011 0.707107   
     length 0.663757   
     axis -90 45 5.69224e-014   XYZ
    dof rx rz
    limits (-45.0 45.0)
           (-45.0 45.0)
  end
  begin
     id 24 
     name rclavicle
     direction -0.981571 0.157346 0.108443   
     length 3.35257  
     axis 0 0 0   XYZ 
    dof ry rz
    limits (-10.0 20.0)
           (-20.0 0.0)
  end
  begin
     id 25 
     name rhumerus
     direction -1 -4.48967e-011 8.58308e-029  
     length 4.67018   
     axis 180 30 90   XYZ
    dof rx ry rz
    limits (-90.0 60.0)
           (-90.0 90.0)
           (-90.0 90.0)
  end
  begin
     id 26 
     name rradius
     direction -1 -4.48958e-011 4.52548e-027   
     length 2.65534   
     axis 180 30 90   XYZ
    dof rx
    limits (-10.0 170.0)
  end
  begin
     id 27 
     name rwrist
     direction -1 -4.48977e-011 1.14952e-026   
     length 1.32767   
     axis -6.29373e-015 -90 -90   XYZ
    dof ry
    limits (-180.0 0.0)
  end
  begin
     id 28
     name rhand
     direction -1 -4.48924e-011 2.29804e-026   
     length 0.594069   
     axis -1.46689e-014 -90 -90   XYZ
    dof rx rz
    limits (-90.0 90.0)
           (-45.0 45.0)
  end
  begin
     id 29
     name rfingers
     direction -1 -4.48998e-011 4.59888e-026   
     length 0.478954   
     axis -2.93383e-014 -90 -90   XYZ
    dof rx
    limits (0.0 90.0)
  end
  begin
     id 30
     name rthumb
     direction -0.707107 -6.34933e-011 0.707107   
     length 0.687685   
     axis -90 -45 -5.69224e-014   XYZ
    dof rx rz
    limits (-45.0 45.0)
           (-45.0 45.0)
  end
:hierarchy
  begin
    root lhipjoint rhipjoint lowerback
    lhipjoint lfemur
    lfemur ltibia
    ltibia lfoot
    lfoot ltoes
    rhipjoint rfemur
    rfemur rtibia
    rtibia rfoot
    rfoot rtoes
    lowerback upperback
    upperback thorax
    thorax lowerneck lclavicle rclavicle
    lowerneck upperneck
    upperneck head
    lclavicle lhumerus
    lhumerus lradius
    lradius lwrist
    lwrist lhand lthumb
    lhand lfingers
    rclavicle rhumerus
    rhumerus rradius
    rradius rwrist
    rwrist rhand rthumb
    rhand rfingers
  end

#!OML:ASF E:\pregnant2\Project 1\Capture day 1\Session 1\pregnant2.ASF
:FULLY-SPECIFIED
:DEGREES
65
root -4.28123 15.6973 20.1569 27.9941 6.21344 -0.725832
lowerback -20.3228 0.948551 2.37286
upperback -16.188 0.993251 -0.572714
thorax -6.34768 0.29648 -1.81195
lowerneck -15.6098 -3.91269 -5.22837
upperneck 35.5047 -5.48826 3.42314
head 15.2965 -2.55774 1.39968
rclavicle 1.20762e-014 -1.42131e-014
rhumerus -22.1948 6.428 -79.3358
rradius 115.505
rwrist 36.9907
rhand -5.9316 -8.50084
rfingers 7.12502
rthumb 19.8981 -37.5022
lclavicle 1.20762e-014 -1.42131e-014
lhumerus -26.7297 -2.31575 79.7762
lradius 118.22
lwrist -28.0876
lhand -9.38848 15.5628
lfingers 7.12502
lthumb 16.5725 44.8752
rfemur -56.4742 -3.15031 20.1732
rtibia 62.674
rfoot -28.1049 -14.371
rtoes -13.957
lfemur -57.3433 6.48734 -19.909
ltibia 62.0177
lfoot -27.8552 5.51838
ltoes -13.734
66
root -4.28208 15.6985 20.1564 28.0013 6.21064 -0.732751
lowerback -20.3194 0.951291 2.38644
upperback -16.1913 0.995017 -0.571018
thorax -6.35313 0.296101 -1.81757
lowerneck -15.6211 -3.91309 -5.23334
upperneck 35.5079 -5.49211 3.43673
head 15.3017 -2.55798 1.40545
rclavicle 1.23743e-014 1.04362e-014
rhumerus -22.2125 6.43685 -79.3361
rradius 115.5
rwrist 36.9949
rhand -5.9287 -8.50543
rfingers 7.12502
rthumb 19.9009 -37.5065
lclavicle 1.23743e-014 1.04362e-014
lhumerus -26.7377 -2.31887 79.7725
lradius 118.216
lwrist -28.0904
lhand -9.3814 15.5557
lfingers 7.12502
lthumb 16.5793 44.8675
rfemur -56.4771 -3.14786 20.1845
rtibia 62.6509
rfoot -28.0863 -14.3652
rtoes -13.9692
lfemur -57.346 6.48951 -19.8995
ltibia 62.0013
lfoot -27.844 5.5242
ltoes -13.7375
67
root -4.28291 15.6997 20.1558 28.0085 6.20574 -0.738414
lowerback -20.3143 0.95476 2.3994
upperback -16.195 0.997835 -0.570752
thorax -6.35988 0.2962 -1.82425
lowerneck -15.6291 -3.91397 -5.23658
upperneck 35.5077 -5.49651 3.44829
head 15.3043 -2.55856 1.40998
rclavicle -1.17531e-014 -4.47266e-016
rhumerus -22.2293 6.44476 -79.3365
rradius 115.493
rwrist 37.0027
rhand -5.92372 -8.50973
rfingers 7.12502
rthumb 19.9057 -37.5103
lclavicle -1.17531e-014 -4.47266e-016
lhumerus -26.746 -2.32362 79.768
lradius 118.21
lwrist -28.0939
lhand -9.37583 15.5499
lfingers 7.12502
lthumb 16.5846 44.8613
rfemur -56.481 -3.1444 20.1934
rtibia 62.6283
rfoot -28.0678 -14.3593
rtoes -13.9801
lfemur -57.3489 6.49245 -19.892
ltibia 61.9838
lfoot -27.8315 5.5274
ltoes -13.7334
68
root -4.28385 15.701 20.1552 28.0135 6.20045 -0.741868
lowerback -20.3106 0.958157 2.40816
upperback -16.1962 1.00106 -0.571695
thorax -6.36305 0.296892 -1.82977
lowerneck -15.6357 -3.91606 -5.23953
upperneck 35.504 -5.50252 3.45931
head 15.305 -2.55989 1.41393
rclavicle 9.59136e-015 4.27387e-015
rhumerus -22.2435 6.44999 -79.3356
rradius 115.485
rwrist 37.0154
rhand -5.9223 -8.51167
rfingers 7.12502
rthumb 19.907 -37.5121
lclavicle 9.59136e-015 4.27387e-015
lhumerus -26.7501 -2.33115 79.7647
lradius 118.203
lwrist -28.0979
lhand -9.36775 15.545
lfingers 7.12502
lthumb 16.5924 44.8557
rfemur -56.4817 -3.14187 20.2005
rtibia 62.6059
rfoot -28.0511 -14.3523
rtoes -13.9825
lfemur -57.3477 6.49472 -19.8858
ltibia 61.9641
lfoot -27.8184 5.52815
ltoes -13.7217
69
root -4.28485 15.7025 20.1548 28.0156 6.19633 -0.743927
lowerback -20.308 0.961845 2.41582
upperback -16.1959 1.00475 -0.574374
thorax -6.36369 0.297873 -1.83646
lowerneck -15.6372 -3.91927 -5.24135
upperneck 35.4962 -5.50974 3.46791
head 15.3024 -2.562 1.41648
rclavicle -2.38045e-014 4.67144e-015
rhumerus -22.2561 6.45083 -79.3345
rradius 115.477
rwrist 37.0303
rhand -5.91817 -8.51107
rfingers 7.12502
rthumb 19.911 -37.5111
lclavicle -2.38045e-014 4.67144e-015
lhumerus -26.7522 -2.34195 79.7619
lradius 118.195
lwrist -28.1018
lhand -9.35414 15.5446
lfingers 7.12502
lthumb 16.6055 44.8542
rfemur -56.4767 -3.14012 20.2066
rtibia 62.5827
rfoot -28.037 -14.3452
rtoes -13.9872
lfemur -57.3417 6.49672 -19.8801
ltibia 61.9427
lfoot -27.8058 5.52583
ltoes -13.7073
70
root -4.28592 15.7041 20.1544 28.0154 6.19164 -0.744749
lowerback -20.3038 0.965789 2.4218
upperback -16.1945 1.00901 -0.578647
thorax -6.36397 0.29921 -1.84385
lowerneck -15.6376 -3.92237 -5.24277
upperneck 35.487 -5.51755 3.47821
head 15.2991 -2.56409 1.41958
rclavicle -3.45388e-015 -6.31141e-015
rhumerus -22.2671 6.44857 -79.3333
rradius 115.471
rwrist 37.046
rhand -5.90863 -8.50779
rfingers 7.12502
rthumb 19.9202 -37.5068
lclavicle -3.45388e-015 -6.31141e-015
lhumerus -26.7523 -2.35489 79.7586
lradius 118.186
lwrist -28.1048
lhand -9.33954 15.5459
lfingers 7.12502
lthumb 16.6196 44.8543
rfemur -56.4683 -3.13824 20.2115
rtibia 62.5589
rfoot -28.0235 -14.3392
rtoes -13.9902
lfemur -57.3319 6.49941 -19.8753
ltibia 61.9201
lfoot -27.7929 5.5224
ltoes -13.6934
71
root -4.28688 15.7058 20.1541 28.0149 6.18727 -0.747345
lowerback -20.3013 0.970273 2.43131
upperback -16.1932 1.01342 -0.582755
thorax -6.36331 0.300318 -1.853
lowerneck -15.6361 -3.92546 -5.24158
upperneck 35.4777 -5.52422 3.48306
head 15.2947 -2.56614 1.42015
rclavicle 1.09332e-015 5.36719e-015
rhumerus -22.2749 6.44649 -79.3329
rradius 115.465
rwrist 37.0583
rhand -5.8982 -8.50296
rfingers 7.12502
rthumb 19.9302 -37.501
lclavicle 1.09332e-015 5.36719e-015
lhumerus -26.7525 -2.36598 79.7541
lradius 118.179
lwrist -28.107
lhand -9.32249 15.5479
lfingers 7.12502
lthumb 16.636 44.855
rfemur -56.4581 -3.13719 20.2183
rtibia 62.534
rfoot -28.0118 -14.3311
rtoes -13.9873
lfemur -57.3209 6.50278 -19.8698
ltibia 61.8974
lfoot -27.7802 5.5242
ltoes -13.6949
